<?xml version="1.0" standalone="no"?><!DOCTYPE svg PUBLIC "-//W3C//DTD SVG 1.1//EN" "http://www.w3.org/Graphics/SVG/1.1/DTD/svg11.dtd"><svg t="1657809670909" class="icon" viewBox="0 0 1184 1024" version="1.1" xmlns="http://www.w3.org/2000/svg" p-id="14277" xmlns:xlink="http://www.w3.org/1999/xlink" width="231.25" height="200"><defs><style type="text/css">@font-face { font-family: feedback-iconfont; src: url("//at.alicdn.com/t/font_1031158_u69w8yhxdu.woff2?t=1630033759944") format("woff2"), url("//at.alicdn.com/t/font_1031158_u69w8yhxdu.woff?t=1630033759944") format("woff"), url("//at.alicdn.com/t/font_1031158_u69w8yhxdu.ttf?t=1630033759944") format("truetype"); }
</style></defs><path d="M733.696 456.704c-30.72 0-55.296 25.088-55.296 55.296 0 30.72 25.088 55.296 55.296 55.296s55.296-25.088 55.296-55.296c0.512-30.208-24.576-55.296-55.296-55.296z m-221.696 0c-30.72 0-55.296 25.088-55.296 55.296 0 30.72 25.088 55.296 55.296 55.296s55.296-25.088 55.296-55.296-24.576-55.296-55.296-55.296z m-222.208 0c-30.72 0-55.296 25.088-55.296 55.296 0 30.72 25.088 55.296 55.296 55.296s55.296-25.088 55.296-55.296c0.512-30.208-24.576-55.296-55.296-55.296z" p-id="14278" fill="#13227a"></path><path d="M137.728 270.848h749.056c22.528 0 33.28 10.752 33.28 33.28v414.208c0 20.48-15.872 33.28-33.28 33.28h-749.056c-20.48 0-33.28-15.872-33.28-33.28v-414.208c0-22.528 10.752-33.28 33.28-33.28z m0-73.728c-58.88 0-107.52 48.64-107.52 107.52v414.208c0 56.832 46.592 107.52 107.52 107.52h749.056c56.832 0 107.52-46.592 107.52-107.52v-414.208c0-58.88-48.64-107.52-107.52-107.52h-749.056z" p-id="14279" fill="#13227a"></path></svg>