<?xml version="1.0" standalone="no"?><!DOCTYPE svg PUBLIC "-//W3C//DTD SVG 1.1//EN" "http://www.w3.org/Graphics/SVG/1.1/DTD/svg11.dtd"><svg t="1657810427647" class="icon" viewBox="0 0 1228 1024" version="1.1" xmlns="http://www.w3.org/2000/svg" p-id="26374" xmlns:xlink="http://www.w3.org/1999/xlink" width="239.84375" height="200"><defs><style type="text/css">@font-face { font-family: feedback-iconfont; src: url("//at.alicdn.com/t/font_1031158_u69w8yhxdu.woff2?t=1630033759944") format("woff2"), url("//at.alicdn.com/t/font_1031158_u69w8yhxdu.woff?t=1630033759944") format("woff"), url("//at.alicdn.com/t/font_1031158_u69w8yhxdu.ttf?t=1630033759944") format("truetype"); }
</style></defs><path d="M157.517775 58.274328h911.871369c67.148896 0 121.580387 54.431491 121.580388 121.580387v653.2092a121.58681 121.58681 0 0 1-35.612268 85.974542 121.561121 121.561121 0 0 1-85.967317 35.612267H157.517775a121.58681 121.58681 0 0 1-121.579585-121.586809V179.854715c0-67.148896 54.430688-121.580387 121.579585-121.580387z m774.284648 601.734292c-34.960422-20.305142-78.992893-15.954957-109.302095 10.798797l-44.811153-25.979086V516.520772a37.226628 37.226628 0 0 0-18.612913-32.270356l-115.093242-66.236956v-56.787606c43.940153-14.898518 70.637714-59.420676 63.083693-105.200768-7.549203-45.778485-47.129539-79.368588-93.53097-79.368587-46.400628 0-85.980964 33.590102-93.530168 79.368587-7.55402 45.780091 19.143541 90.301446 63.083694 105.200768v56.787606l-115.035443 66.293149a37.211376 37.211376 0 0 0-18.608899 32.270357v128.195172l-44.867347 26.035279c-30.299568-26.773823-74.331236-31.14488-109.302094-10.85499-45.182834 26.21831-60.684229 84.013387-34.694707 129.320649a94.072837 94.072837 0 0 0 128.759516 34.745281c35.983948-20.803659 53.073212-61.789636 45.372286-100.529477l41.215568-23.951301 118.912799 68.540089a37.456219 37.456219 0 0 0 37.221812 0l118.863027-68.427702 41.209147 23.951301c-7.879943 39.732861 10.320349 80.087062 45.320909 100.473284 45.091318 26.147666 102.831005 10.681593 128.754699-34.690694 26.072207-45.228591 10.692832-103.024471-34.408922-129.319043v-0.056194z m25.853854 12.448479" p-id="26375" fill="#bbed92"></path></svg>