<?xml version="1.0" standalone="no"?><!DOCTYPE svg PUBLIC "-//W3C//DTD SVG 1.1//EN" "http://www.w3.org/Graphics/SVG/1.1/DTD/svg11.dtd"><svg t="1657809818749" class="icon" viewBox="0 0 1024 1024" version="1.1" xmlns="http://www.w3.org/2000/svg" p-id="22037" xmlns:xlink="http://www.w3.org/1999/xlink" width="200" height="200"><defs><style type="text/css">@font-face { font-family: feedback-iconfont; src: url("//at.alicdn.com/t/font_1031158_u69w8yhxdu.woff2?t=1630033759944") format("woff2"), url("//at.alicdn.com/t/font_1031158_u69w8yhxdu.woff?t=1630033759944") format("woff"), url("//at.alicdn.com/t/font_1031158_u69w8yhxdu.ttf?t=1630033759944") format("truetype"); }
</style></defs><path d="M747.946667 85.333333a85.333333 85.333333 0 0 1 81.450666 59.861334l80.170667 256.597333a170.666667 170.666667 0 0 1 7.765333 50.901333V853.333333a85.333333 85.333333 0 0 1-85.333333 85.333334h-640a85.333333 85.333333 0 0 1-85.333333-85.333334v-400.64a170.666667 170.666667 0 0 1 7.765333-50.901333l80.213333-256.597333A85.333333 85.333333 0 0 1 276.053333 85.333333h471.893334zM640 554.666667H384a42.666667 42.666667 0 0 0 0 85.333333h256a42.666667 42.666667 0 0 0 0-85.333333z m80.597333-362.666667H303.402667a34.133333 34.133333 0 0 0-31.445334 20.821333l-1.493333 4.352L213.333333 426.666667h597.333334l-57.173334-209.493334a34.133333 34.133333 0 0 0-32.896-25.173333z" p-id="22038"></path></svg>